<mxfile host="Electron" modified="2024-05-22T13:08:45.295Z" agent="Mozilla/5.0 (X11; Linux x86_64) AppleWebKit/537.36 (KHTML, like Gecko) draw.io/24.2.5 Chrome/120.0.6099.109 Electron/28.1.0 Safari/537.36" etag="krNAzA5NYrZl9F9C9ftG" version="24.2.5" type="device">
  <diagram name="ER диаграмма" id="7Tp_m3Bshy0kum2uIcgZ">
    <mxGraphModel dx="868" dy="600" grid="1" gridSize="10" guides="1" tooltips="1" connect="1" arrows="1" fold="1" page="1" pageScale="1" pageWidth="827" pageHeight="1169" math="0" shadow="0">
      <root>
        <mxCell id="0" />
        <mxCell id="1" parent="0" />
        <mxCell id="it2WnKStiZQt1YqXSJBM-14" style="edgeStyle=orthogonalEdgeStyle;rounded=0;orthogonalLoop=1;jettySize=auto;html=1;entryX=0;entryY=0.5;entryDx=0;entryDy=0;endArrow=none;endFill=0;" parent="1" source="it2WnKStiZQt1YqXSJBM-1" target="it2WnKStiZQt1YqXSJBM-9" edge="1">
          <mxGeometry relative="1" as="geometry" />
        </mxCell>
        <mxCell id="it2WnKStiZQt1YqXSJBM-16" style="edgeStyle=orthogonalEdgeStyle;rounded=0;orthogonalLoop=1;jettySize=auto;html=1;entryX=0;entryY=0.5;entryDx=0;entryDy=0;endArrow=none;endFill=0;" parent="1" source="it2WnKStiZQt1YqXSJBM-1" target="it2WnKStiZQt1YqXSJBM-10" edge="1">
          <mxGeometry relative="1" as="geometry" />
        </mxCell>
        <mxCell id="it2WnKStiZQt1YqXSJBM-17" style="edgeStyle=orthogonalEdgeStyle;rounded=0;orthogonalLoop=1;jettySize=auto;html=1;entryX=0;entryY=0.5;entryDx=0;entryDy=0;endArrow=none;endFill=0;" parent="1" source="it2WnKStiZQt1YqXSJBM-1" target="it2WnKStiZQt1YqXSJBM-11" edge="1">
          <mxGeometry relative="1" as="geometry" />
        </mxCell>
        <mxCell id="it2WnKStiZQt1YqXSJBM-18" style="edgeStyle=orthogonalEdgeStyle;rounded=0;orthogonalLoop=1;jettySize=auto;html=1;entryX=0;entryY=0.5;entryDx=0;entryDy=0;endArrow=none;endFill=0;" parent="1" source="it2WnKStiZQt1YqXSJBM-1" target="it2WnKStiZQt1YqXSJBM-12" edge="1">
          <mxGeometry relative="1" as="geometry" />
        </mxCell>
        <mxCell id="it2WnKStiZQt1YqXSJBM-19" style="edgeStyle=orthogonalEdgeStyle;rounded=0;orthogonalLoop=1;jettySize=auto;html=1;entryX=0;entryY=0.5;entryDx=0;entryDy=0;endArrow=none;endFill=0;" parent="1" source="it2WnKStiZQt1YqXSJBM-1" target="it2WnKStiZQt1YqXSJBM-13" edge="1">
          <mxGeometry relative="1" as="geometry" />
        </mxCell>
        <mxCell id="it2WnKStiZQt1YqXSJBM-1" value="&lt;font style=&quot;font-size: 20px;&quot;&gt;&lt;b&gt;Запись&lt;/b&gt;&lt;/font&gt;" style="rounded=0;whiteSpace=wrap;html=1;" parent="1" vertex="1">
          <mxGeometry x="114" y="600" width="220" height="80" as="geometry" />
        </mxCell>
        <mxCell id="it2WnKStiZQt1YqXSJBM-9" value="ID" style="rounded=1;whiteSpace=wrap;html=1;arcSize=50;fillColor=#ffe6cc;strokeColor=#d79b00;" parent="1" vertex="1">
          <mxGeometry x="244" y="700" width="120" height="30" as="geometry" />
        </mxCell>
        <mxCell id="it2WnKStiZQt1YqXSJBM-10" value="Дата" style="rounded=1;whiteSpace=wrap;html=1;arcSize=50;fillColor=#f5f5f5;fontColor=#333333;strokeColor=#666666;" parent="1" vertex="1">
          <mxGeometry x="244" y="740" width="120" height="30" as="geometry" />
        </mxCell>
        <mxCell id="it2WnKStiZQt1YqXSJBM-11" value="Текст" style="rounded=1;whiteSpace=wrap;html=1;arcSize=50;fillColor=#f5f5f5;fontColor=#333333;strokeColor=#666666;" parent="1" vertex="1">
          <mxGeometry x="244" y="780" width="120" height="30" as="geometry" />
        </mxCell>
        <mxCell id="it2WnKStiZQt1YqXSJBM-12" value="Категория" style="rounded=1;whiteSpace=wrap;html=1;arcSize=50;fillColor=#fff2cc;strokeColor=#d6b656;" parent="1" vertex="1">
          <mxGeometry x="244" y="820" width="120" height="30" as="geometry" />
        </mxCell>
        <mxCell id="it2WnKStiZQt1YqXSJBM-13" value="Фото" style="rounded=1;whiteSpace=wrap;html=1;arcSize=50;fillColor=#fff2cc;strokeColor=#d6b656;" parent="1" vertex="1">
          <mxGeometry x="244" y="860" width="120" height="30" as="geometry" />
        </mxCell>
        <mxCell id="it2WnKStiZQt1YqXSJBM-20" value="" style="image;html=1;image=img/lib/clip_art/general/Keys_128x128.png" parent="1" vertex="1">
          <mxGeometry x="244" y="700" width="40" height="25" as="geometry" />
        </mxCell>
        <mxCell id="oEq0_oujoUTS200elwoQ-7" style="edgeStyle=orthogonalEdgeStyle;rounded=0;orthogonalLoop=1;jettySize=auto;html=1;entryX=0;entryY=0.5;entryDx=0;entryDy=0;endArrow=none;endFill=0;" edge="1" parent="1" source="oEq0_oujoUTS200elwoQ-1" target="oEq0_oujoUTS200elwoQ-2">
          <mxGeometry relative="1" as="geometry" />
        </mxCell>
        <mxCell id="oEq0_oujoUTS200elwoQ-8" style="edgeStyle=orthogonalEdgeStyle;rounded=0;orthogonalLoop=1;jettySize=auto;html=1;entryX=0;entryY=0.5;entryDx=0;entryDy=0;endArrow=none;endFill=0;" edge="1" parent="1" source="oEq0_oujoUTS200elwoQ-1" target="oEq0_oujoUTS200elwoQ-3">
          <mxGeometry relative="1" as="geometry" />
        </mxCell>
        <mxCell id="oEq0_oujoUTS200elwoQ-9" style="edgeStyle=orthogonalEdgeStyle;rounded=0;orthogonalLoop=1;jettySize=auto;html=1;entryX=0;entryY=0.5;entryDx=0;entryDy=0;endArrow=none;endFill=0;" edge="1" parent="1" source="oEq0_oujoUTS200elwoQ-1" target="oEq0_oujoUTS200elwoQ-4">
          <mxGeometry relative="1" as="geometry" />
        </mxCell>
        <mxCell id="oEq0_oujoUTS200elwoQ-1" value="&lt;span style=&quot;font-size: 20px;&quot;&gt;&lt;b&gt;Категория&lt;/b&gt;&lt;/span&gt;" style="rounded=0;whiteSpace=wrap;html=1;" vertex="1" parent="1">
          <mxGeometry x="464" y="600" width="220" height="80" as="geometry" />
        </mxCell>
        <mxCell id="oEq0_oujoUTS200elwoQ-2" value="ID" style="rounded=1;whiteSpace=wrap;html=1;arcSize=50;fillColor=#ffe6cc;strokeColor=#d79b00;" vertex="1" parent="1">
          <mxGeometry x="594" y="700" width="120" height="30" as="geometry" />
        </mxCell>
        <mxCell id="oEq0_oujoUTS200elwoQ-3" value="Название" style="rounded=1;whiteSpace=wrap;html=1;arcSize=50;fillColor=#f5f5f5;fontColor=#333333;strokeColor=#666666;" vertex="1" parent="1">
          <mxGeometry x="594" y="740" width="120" height="30" as="geometry" />
        </mxCell>
        <mxCell id="oEq0_oujoUTS200elwoQ-4" value="Цвет" style="rounded=1;whiteSpace=wrap;html=1;arcSize=50;fillColor=#f5f5f5;fontColor=#333333;strokeColor=#666666;" vertex="1" parent="1">
          <mxGeometry x="594" y="780" width="120" height="30" as="geometry" />
        </mxCell>
        <mxCell id="oEq0_oujoUTS200elwoQ-5" value="" style="image;html=1;image=img/lib/clip_art/general/Keys_128x128.png" vertex="1" parent="1">
          <mxGeometry x="594" y="700" width="40" height="25" as="geometry" />
        </mxCell>
        <mxCell id="oEq0_oujoUTS200elwoQ-15" value="" style="edgeStyle=entityRelationEdgeStyle;fontSize=12;html=1;endArrow=ERoneToMany;rounded=0;entryX=1;entryY=0.5;entryDx=0;entryDy=0;exitX=0;exitY=0.5;exitDx=0;exitDy=0;" edge="1" parent="1" source="oEq0_oujoUTS200elwoQ-1" target="it2WnKStiZQt1YqXSJBM-1">
          <mxGeometry width="100" height="100" relative="1" as="geometry">
            <mxPoint x="414" y="670" as="sourcePoint" />
            <mxPoint x="534" y="660" as="targetPoint" />
          </mxGeometry>
        </mxCell>
        <mxCell id="oEq0_oujoUTS200elwoQ-21" style="edgeStyle=orthogonalEdgeStyle;rounded=0;orthogonalLoop=1;jettySize=auto;html=1;entryX=0;entryY=0.5;entryDx=0;entryDy=0;endArrow=none;endFill=0;" edge="1" parent="1" source="oEq0_oujoUTS200elwoQ-16" target="oEq0_oujoUTS200elwoQ-20">
          <mxGeometry relative="1" as="geometry" />
        </mxCell>
        <mxCell id="oEq0_oujoUTS200elwoQ-22" style="edgeStyle=orthogonalEdgeStyle;rounded=0;orthogonalLoop=1;jettySize=auto;html=1;entryX=0;entryY=0.5;entryDx=0;entryDy=0;endArrow=none;endFill=0;" edge="1" parent="1" source="oEq0_oujoUTS200elwoQ-16" target="oEq0_oujoUTS200elwoQ-18">
          <mxGeometry relative="1" as="geometry" />
        </mxCell>
        <mxCell id="oEq0_oujoUTS200elwoQ-23" style="edgeStyle=orthogonalEdgeStyle;rounded=0;orthogonalLoop=1;jettySize=auto;html=1;entryX=0;entryY=0.5;entryDx=0;entryDy=0;endArrow=none;endFill=0;" edge="1" parent="1" source="oEq0_oujoUTS200elwoQ-16" target="oEq0_oujoUTS200elwoQ-19">
          <mxGeometry relative="1" as="geometry" />
        </mxCell>
        <mxCell id="oEq0_oujoUTS200elwoQ-16" value="&lt;span style=&quot;font-size: 20px;&quot;&gt;&lt;b&gt;Фото&lt;/b&gt;&lt;/span&gt;" style="rounded=0;whiteSpace=wrap;html=1;" vertex="1" parent="1">
          <mxGeometry x="254" y="340" width="220" height="80" as="geometry" />
        </mxCell>
        <mxCell id="oEq0_oujoUTS200elwoQ-17" value="ID" style="rounded=1;whiteSpace=wrap;html=1;arcSize=50;fillColor=#ffe6cc;strokeColor=#d79b00;" vertex="1" parent="1">
          <mxGeometry x="384" y="444.5" width="120" height="30" as="geometry" />
        </mxCell>
        <mxCell id="oEq0_oujoUTS200elwoQ-18" value="Название" style="rounded=1;whiteSpace=wrap;html=1;arcSize=50;fillColor=#f5f5f5;fontColor=#333333;strokeColor=#666666;" vertex="1" parent="1">
          <mxGeometry x="384" y="484.5" width="120" height="30" as="geometry" />
        </mxCell>
        <mxCell id="oEq0_oujoUTS200elwoQ-19" value="Путь" style="rounded=1;whiteSpace=wrap;html=1;arcSize=50;fillColor=#f5f5f5;fontColor=#333333;strokeColor=#666666;" vertex="1" parent="1">
          <mxGeometry x="384" y="524.5" width="120" height="30" as="geometry" />
        </mxCell>
        <mxCell id="oEq0_oujoUTS200elwoQ-20" value="" style="image;html=1;image=img/lib/clip_art/general/Keys_128x128.png" vertex="1" parent="1">
          <mxGeometry x="384" y="444.5" width="40" height="25" as="geometry" />
        </mxCell>
        <mxCell id="oEq0_oujoUTS200elwoQ-26" value="" style="edgeStyle=entityRelationEdgeStyle;fontSize=12;html=1;endArrow=ERoneToMany;rounded=0;exitX=0.368;exitY=-0.002;exitDx=0;exitDy=0;entryX=0;entryY=0.5;entryDx=0;entryDy=0;exitPerimeter=0;" edge="1" parent="1" source="it2WnKStiZQt1YqXSJBM-1" target="oEq0_oujoUTS200elwoQ-16">
          <mxGeometry width="100" height="100" relative="1" as="geometry">
            <mxPoint x="70" y="544.5" as="sourcePoint" />
            <mxPoint x="170" y="444.5" as="targetPoint" />
            <Array as="points">
              <mxPoint x="220" y="560" />
              <mxPoint x="150" y="450" />
              <mxPoint x="220" y="550" />
              <mxPoint x="190" y="440" />
            </Array>
          </mxGeometry>
        </mxCell>
      </root>
    </mxGraphModel>
  </diagram>
</mxfile>
